<svg xmlns="http://www.w3.org/2000/svg" version="1.1" width="512" height="512">
<path d="M0 0 C2.375 1.625 2.375 1.625 4 4 C4.2503919 6.85446763 4.24916552 9.17972679 4 12 C3.9177417 12.93706787 3.8354834 13.87413574 3.75073242 14.83959961 C3.66154541 15.80905518 3.5723584 16.77851074 3.48046875 17.77734375 C3.39047607 18.75823975 3.3004834 19.73913574 3.20776367 20.74975586 C3.13920166 21.49233643 3.07063965 22.23491699 3 23 C4.84839478 22.9685791 4.84839478 22.9685791 6.73413086 22.93652344 C53.54117227 22.21177406 53.54117227 22.21177406 73 27 C74.47073975 27.35408936 74.47073975 27.35408936 75.97119141 27.71533203 C127.2859608 40.46388358 171.85041934 73.01162097 199.54003906 118.05957031 C216.33635667 146.15447728 228.01357665 178.93720349 228.203125 211.92578125 C228.21013931 212.74711044 228.21715363 213.56843964 228.22438049 214.41465759 C228.24177422 217.04732823 228.24823174 219.67977403 228.25 222.3125 C228.25067474 223.21150024 228.25134949 224.11050049 228.25204468 225.03674316 C228.23663867 237.93459758 227.88090608 250.37902267 225 263 C224.83371094 263.79067871 224.66742188 264.58135742 224.49609375 265.39599609 C220.42782806 284.61101766 213.35921079 302.75832922 204 320 C203.43667969 321.04285156 202.87335938 322.08570313 202.29296875 323.16015625 C193.1636238 339.38772724 181.48699201 354.16910684 167.8984375 366.87890625 C165.9037917 369.10749199 165.63601439 370.18014858 165 373 C160.05595743 379.14455422 153.44140256 384.49820193 147 389 C146.34 389 145.68 389 145 389 C145 389.66 145 390.32 145 391 C142.91015625 392.515625 142.91015625 392.515625 140.0625 394.25 C136.46157287 396.46949729 132.91610433 398.71865364 129.4375 401.125 C124.80569711 404.20746076 120.05948883 406.69092861 115 409 C114.35305176 409.29664551 113.70610352 409.59329102 113.03955078 409.89892578 C65.2937678 431.55447074 11.50615206 432.53021327 -38 416 C-44.90557645 413.37337097 -51.60885988 410.35775955 -58.1875 407 C-58.86893066 406.65533691 -59.55036133 406.31067383 -60.25244141 405.95556641 C-65.23693214 403.42114001 -70.16372736 400.80844775 -75 398 C-76.36705078 397.22462891 -76.36705078 397.22462891 -77.76171875 396.43359375 C-78.68597656 395.89863281 -79.61023438 395.36367188 -80.5625 394.8125 C-81.40941406 394.32394531 -82.25632812 393.83539063 -83.12890625 393.33203125 C-83.74636719 392.89246094 -84.36382812 392.45289063 -85 392 C-85 391.34 -85 390.68 -85 390 C-86.09441406 389.63068359 -86.09441406 389.63068359 -87.2109375 389.25390625 C-90.3015674 387.86442138 -92.1714487 386.26386052 -94.625 383.9375 C-99.08561004 379.79693373 -103.69994524 375.93505106 -108.45703125 372.140625 C-111.13548455 369.88595156 -113.55939011 367.5103416 -116 365 C-116.51473877 364.47438477 -117.02947754 363.94876953 -117.55981445 363.40722656 C-129.30811921 351.34204815 -138.51555497 338.44318847 -146.92236328 323.86767578 C-147.94695249 322.0919378 -148.98674828 320.32499956 -150.02734375 318.55859375 C-154.39150039 310.93421861 -157.70798475 303.02642442 -160.8125 294.8125 C-161.37227539 293.33438843 -161.37227539 293.33438843 -161.94335938 291.82641602 C-164.45616076 284.9806284 -166.35746879 278.1011873 -168 271 C-168.18941162 270.21230225 -168.37882324 269.42460449 -168.57397461 268.61303711 C-177.8755867 229.48555649 -175.80499174 188.55412538 -161 151 C-160.34 151 -159.68 151 -159 151 C-158.90847656 150.1646875 -158.81695312 149.329375 -158.72265625 148.46875 C-157.88569343 144.45132847 -156.31322851 141.10955062 -154.4375 137.5 C-154.08469971 136.80801514 -153.73189941 136.11603027 -153.3684082 135.40307617 C-149.80040666 128.47481814 -145.9573171 121.71252235 -142 115 C-141.47019531 114.04480469 -140.94039062 113.08960938 -140.39453125 112.10546875 C-139.70423828 111.06326172 -139.70423828 111.06326172 -139 110 C-138.34 110 -137.68 110 -137 110 C-136.79375 109.34 -136.5875 108.68 -136.375 108 C-133.99443821 102.806047 -130.25206325 98.55661918 -126.6875 94.125 C-124.97049329 92.11266198 -124.97049329 92.11266198 -124 90 C-123.34 90 -122.68 90 -122 90 C-122 89.34 -122 88.68 -122 88 C-121.34 88 -120.68 88 -120 88 C-120 87.01 -120 86.02 -120 85 C-120.98009033 84.9395752 -120.98009033 84.9395752 -121.97998047 84.87792969 C-129.23904812 84.3364189 -136.0714645 83.01407168 -143.125 81.25 C-144.20869873 80.98268066 -145.29239746 80.71536133 -146.40893555 80.43994141 C-149.60994816 79.64140617 -152.80587895 78.82563575 -156 78 C-157.35617432 77.65050293 -157.35617432 77.65050293 -158.73974609 77.29394531 C-161.10340533 76.67431422 -163.4589535 76.03187677 -165.8125 75.375 C-166.4926416 75.19356445 -167.1727832 75.01212891 -167.87353516 74.82519531 C-171.88558763 73.65763948 -174.46663333 72.36531177 -177 69 C-177.53125 67 -177.53125 67 -177.5 65 C-177.51546875 64.01 -177.51546875 64.01 -177.53125 63 C-176.76164643 60.10266891 -175.2841175 58.89153481 -173 57 C-170.90625 55.98046875 -170.90625 55.98046875 -168.5 55.1875 C-167.06527344 54.70023438 -167.06527344 54.70023438 -165.6015625 54.203125 C-164.41304687 53.80609375 -163.22453125 53.4090625 -162 53 C-160.38187053 52.43498214 -158.76475787 51.86704745 -157.1484375 51.296875 C-143.71803221 46.56003596 -143.71803221 46.56003596 -137.42578125 44.484375 C-133.01789373 43.02230995 -128.66409822 41.43336104 -124.3125 39.8125 C-122.64076016 39.19364517 -120.96887937 38.57517103 -119.296875 37.95703125 C-118.43126953 37.63686035 -117.56566406 37.31668945 -116.67382812 36.98681641 C-98.77700822 30.38172637 -80.84721937 23.82148851 -62.703125 17.921875 C-59.82007826 16.93863941 -56.97708136 15.87058945 -54.12792969 14.79394531 C-49.89378642 13.21415712 -45.62119314 11.74183804 -41.35546875 10.25 C-37.87079037 9.02685878 -34.39875471 7.78164254 -30.9453125 6.47265625 C-27.11804897 5.02778426 -23.25976571 3.72035741 -19.375 2.4375 C-18.12460938 2.02371094 -16.87421875 1.60992187 -15.5859375 1.18359375 C-14.40257812 0.79300781 -13.21921875 0.40242188 -12 0 C-10.92234375 -0.39316406 -9.8446875 -0.78632812 -8.734375 -1.19140625 C-5.09853861 -2.26657501 -3.38439715 -1.61862473 0 0 Z " fill="#1E293B" transform="translate(228,33)"/>
<path d="M0 0 C2.375 1.625 2.375 1.625 4 4 C4.2504241 6.85483468 4.24205714 9.17910334 4 12 C3.93296875 12.96679688 3.8659375 13.93359375 3.796875 14.9296875 C3.18221831 22.81778169 3.18221831 22.81778169 2 24 C1.51660869 26.72811818 1.08870177 29.44597663 0.6953125 32.1875 C0.57161789 33.02871902 0.44792328 33.86993805 0.32048035 34.73664856 C-0.08266847 37.49044345 -0.47914104 40.24514844 -0.875 43 C-1.07858627 44.40190079 -1.07858627 44.40190079 -1.2862854 45.8321228 C-3.02407845 57.79905441 -4.6533493 69.76628537 -6.02685547 81.78100586 C-6.72967386 87.89698789 -7.55689982 93.97905186 -8.5 100.0625 C-9.57244599 106.98828317 -10.52206389 113.91873994 -11.375 120.875 C-12.63201902 131.08237247 -13.91085329 141.28668058 -15.23052979 151.48614502 C-15.45025834 153.19141476 -15.66802039 154.89693914 -15.88372803 156.60272217 C-16.18950054 159.01839019 -16.50218964 161.43307395 -16.81640625 163.84765625 C-16.95069283 164.92601997 -16.95069283 164.92601997 -17.08769226 166.02616882 C-18.5885849 177.37948637 -18.5885849 177.37948637 -21.6875 180.9375 C-25.00569168 182.46207455 -27.39413019 182.45073373 -31 182 C-34.43124624 179.18987784 -36.1449037 176.13575226 -38.0234375 172.16015625 C-38.57 171.01353516 -39.1165625 169.86691406 -39.6796875 168.68554688 C-40.24494506 167.47793637 -40.8100488 166.27025385 -41.375 165.0625 C-41.92671875 163.90169922 -42.4784375 162.74089844 -43.046875 161.54492188 C-44.71064126 158.03578107 -46.35665474 154.51874372 -48 151 C-48.58342862 149.76405145 -49.16708777 148.52821169 -49.75097656 147.29248047 C-50.29979492 146.12217285 -50.84861328 144.95186523 -51.4140625 143.74609375 C-51.91115723 142.68962646 -52.40825195 141.63315918 -52.92041016 140.54467773 C-54 138 -54 138 -54 136 C-63.40536955 143.10335602 -70.09047957 153.56633743 -77 163 C-77.59554687 163.80953125 -78.19109375 164.6190625 -78.8046875 165.453125 C-90.13878574 181.22684697 -99.13663684 198.10943662 -104 217 C-104.2990625 218.09183594 -104.598125 219.18367187 -104.90625 220.30859375 C-113.34123216 256.58682722 -103.97735833 296.09783061 -84.79296875 327.37597656 C-62.46235335 362.70648203 -29.47082861 384.87435462 10 397 C11.01578125 397.32871094 12.0315625 397.65742188 13.078125 397.99609375 C15.70641892 398.79367351 18.31305243 399.42807943 21 400 C21.62438965 400.13390137 22.2487793 400.26780273 22.89208984 400.40576172 C57.31047911 407.45435606 96.60716401 403.95864206 128.11279297 387.95019531 C130.0848864 386.9572603 132.07274531 386.00350929 134.06640625 385.0546875 C142.54867893 380.97850374 150.300263 376.43961519 158 371 C161 369 161 369 163.6875 369.375 C164.8321875 369.684375 164.8321875 369.684375 166 370 C162.35950161 378.05110222 154.06336015 384.02853079 147 389 C146.34 389 145.68 389 145 389 C145 389.66 145 390.32 145 391 C142.91015625 392.515625 142.91015625 392.515625 140.0625 394.25 C136.46157287 396.46949729 132.91610433 398.71865364 129.4375 401.125 C124.80569711 404.20746076 120.05948883 406.69092861 115 409 C114.35305176 409.29664551 113.70610352 409.59329102 113.03955078 409.89892578 C65.2937678 431.55447074 11.50615206 432.53021327 -38 416 C-44.90557645 413.37337097 -51.60885988 410.35775955 -58.1875 407 C-58.86893066 406.65533691 -59.55036133 406.31067383 -60.25244141 405.95556641 C-65.23693214 403.42114001 -70.16372736 400.80844775 -75 398 C-76.36705078 397.22462891 -76.36705078 397.22462891 -77.76171875 396.43359375 C-78.68597656 395.89863281 -79.61023438 395.36367188 -80.5625 394.8125 C-81.40941406 394.32394531 -82.25632812 393.83539063 -83.12890625 393.33203125 C-83.74636719 392.89246094 -84.36382812 392.45289063 -85 392 C-85 391.34 -85 390.68 -85 390 C-86.09441406 389.63068359 -86.09441406 389.63068359 -87.2109375 389.25390625 C-90.3015674 387.86442138 -92.1714487 386.26386052 -94.625 383.9375 C-99.08561004 379.79693373 -103.69994524 375.93505106 -108.45703125 372.140625 C-111.13548455 369.88595156 -113.55939011 367.5103416 -116 365 C-116.51473877 364.47438477 -117.02947754 363.94876953 -117.55981445 363.40722656 C-129.30811921 351.34204815 -138.51555497 338.44318847 -146.92236328 323.86767578 C-147.94695249 322.0919378 -148.98674828 320.32499956 -150.02734375 318.55859375 C-154.39150039 310.93421861 -157.70798475 303.02642442 -160.8125 294.8125 C-161.37227539 293.33438843 -161.37227539 293.33438843 -161.94335938 291.82641602 C-164.45616076 284.9806284 -166.35746879 278.1011873 -168 271 C-168.18941162 270.21230225 -168.37882324 269.42460449 -168.57397461 268.61303711 C-177.8755867 229.48555649 -175.80499174 188.55412538 -161 151 C-160.34 151 -159.68 151 -159 151 C-158.90847656 150.1646875 -158.81695312 149.329375 -158.72265625 148.46875 C-157.88569343 144.45132847 -156.31322851 141.10955062 -154.4375 137.5 C-154.08469971 136.80801514 -153.73189941 136.11603027 -153.3684082 135.40307617 C-149.80040666 128.47481814 -145.9573171 121.71252235 -142 115 C-141.47019531 114.04480469 -140.94039062 113.08960938 -140.39453125 112.10546875 C-139.70423828 111.06326172 -139.70423828 111.06326172 -139 110 C-138.34 110 -137.68 110 -137 110 C-136.79375 109.34 -136.5875 108.68 -136.375 108 C-133.99443821 102.806047 -130.25206325 98.55661918 -126.6875 94.125 C-124.97049329 92.11266198 -124.97049329 92.11266198 -124 90 C-123.34 90 -122.68 90 -122 90 C-122 89.34 -122 88.68 -122 88 C-121.34 88 -120.68 88 -120 88 C-120 87.01 -120 86.02 -120 85 C-120.98009033 84.9395752 -120.98009033 84.9395752 -121.97998047 84.87792969 C-129.23904812 84.3364189 -136.0714645 83.01407168 -143.125 81.25 C-144.20869873 80.98268066 -145.29239746 80.71536133 -146.40893555 80.43994141 C-149.60994816 79.64140617 -152.80587895 78.82563575 -156 78 C-157.35617432 77.65050293 -157.35617432 77.65050293 -158.73974609 77.29394531 C-161.10340533 76.67431422 -163.4589535 76.03187677 -165.8125 75.375 C-166.4926416 75.19356445 -167.1727832 75.01212891 -167.87353516 74.82519531 C-171.88558763 73.65763948 -174.46663333 72.36531177 -177 69 C-177.53125 67 -177.53125 67 -177.5 65 C-177.51546875 64.01 -177.51546875 64.01 -177.53125 63 C-176.76164643 60.10266891 -175.2841175 58.89153481 -173 57 C-170.90625 55.98046875 -170.90625 55.98046875 -168.5 55.1875 C-167.06527344 54.70023438 -167.06527344 54.70023438 -165.6015625 54.203125 C-164.41304687 53.80609375 -163.22453125 53.4090625 -162 53 C-160.38187053 52.43498214 -158.76475787 51.86704745 -157.1484375 51.296875 C-143.71803221 46.56003596 -143.71803221 46.56003596 -137.42578125 44.484375 C-133.01789373 43.02230995 -128.66409822 41.43336104 -124.3125 39.8125 C-122.64076016 39.19364517 -120.96887937 38.57517103 -119.296875 37.95703125 C-118.43126953 37.63686035 -117.56566406 37.31668945 -116.67382812 36.98681641 C-98.77700822 30.38172637 -80.84721937 23.82148851 -62.703125 17.921875 C-59.82007826 16.93863941 -56.97708136 15.87058945 -54.12792969 14.79394531 C-49.89378642 13.21415712 -45.62119314 11.74183804 -41.35546875 10.25 C-37.87079037 9.02685878 -34.39875471 7.78164254 -30.9453125 6.47265625 C-27.11804897 5.02778426 -23.25976571 3.72035741 -19.375 2.4375 C-18.12460938 2.02371094 -16.87421875 1.60992187 -15.5859375 1.18359375 C-14.40257812 0.79300781 -13.21921875 0.40242188 -12 0 C-10.92234375 -0.39316406 -9.8446875 -0.78632812 -8.734375 -1.19140625 C-5.09853861 -2.26657501 -3.38439715 -1.61862473 0 0 Z " fill="#27DB73" transform="translate(228,33)"/>
<path d="M0 0 C26.27207806 13.36202855 47.40271508 32.36185503 60.64770508 58.97485352 C61.07438477 59.78051758 61.50106445 60.58618164 61.94067383 61.41625977 C67.40894174 71.89850871 71.01410837 82.35146745 73.06958008 93.95532227 C73.48863518 96.88258186 73.48863518 96.88258186 74.64770508 98.97485352 C79.02399748 129.23070221 73.30731462 158.50617994 60.64770508 185.97485352 C62.31325439 185.91370361 62.31325439 185.91370361 64.01245117 185.85131836 C68.12330208 185.70309883 72.23450254 185.56836263 76.34594727 185.43774414 C78.12699688 185.37926385 79.90792955 185.31710345 81.6887207 185.2512207 C84.24514476 185.15727639 86.8016942 185.07647794 89.35864258 184.99829102 C90.55715347 184.94999649 90.55715347 184.94999649 91.77987671 184.90072632 C93.73525042 184.84746877 95.69296748 184.90188999 97.64770508 184.97485352 C99.64770508 186.97485352 99.64770508 186.97485352 100.11645508 190.30297852 C99.64770508 193.97485352 99.64770508 193.97485352 97.36645508 196.45922852 C96.30426758 197.20688477 95.24208008 197.95454102 94.14770508 198.72485352 C93.56601562 199.14331543 92.98432617 199.56177734 92.38500977 199.99291992 C90.48920993 201.3458453 88.5714297 202.66200256 86.64770508 203.97485352 C85.37117204 204.86216785 84.09513136 205.75019094 82.81958008 206.63891602 C80.15926137 208.48303853 77.48886696 210.3114381 74.81176758 212.13110352 C63.86023964 219.58658657 53.11546436 227.34034698 42.38745117 235.11230469 C36.55302717 239.33433591 30.68693722 243.50936498 24.78735352 247.63989258 C21.37351639 250.03294907 17.98742083 252.45178037 14.64770508 254.94750977 C14.01445312 255.41584229 13.38120117 255.8841748 12.72875977 256.36669922 C11.54498532 257.24474418 10.36799142 258.13203852 9.19946289 259.03027344 C6.79221747 260.80556179 4.9002192 261.92668608 1.94458008 262.49047852 C-0.35229492 261.97485352 -0.35229492 261.97485352 -1.93164062 260.28881836 C-3.59583932 257.57816786 -3.97247202 255.58465027 -4.37963867 252.43579102 C-4.52989502 251.31495117 -4.68015137 250.19411133 -4.83496094 249.03930664 C-4.98505615 247.82178711 -5.13515137 246.60426758 -5.28979492 245.34985352 C-5.45600342 244.07819336 -5.62221191 242.8065332 -5.79345703 241.49633789 C-7.28050407 230.04894096 -8.5963967 218.57903852 -9.91796875 207.11157227 C-11.02374139 197.54803756 -12.28520936 188.01776959 -13.69604492 178.49438477 C-14.53950262 172.78265598 -15.2354529 167.05482509 -15.92260742 161.32250977 C-16.20001757 159.16123253 -16.52004771 157.00480476 -16.89135742 154.85766602 C-17.32697984 152.13318006 -17.55101129 149.54384878 -17.60229492 146.78735352 C-17.62807617 145.94817383 -17.65385742 145.10899414 -17.68041992 144.24438477 C-17.35229492 141.97485352 -17.35229492 141.97485352 -16.14916992 140.17407227 C-13.65383857 138.50870982 -12.29871521 138.46437948 -9.35229492 138.97485352 C-7.28198242 140.67016602 -7.28198242 140.67016602 -5.22729492 143.09985352 C-4.46030273 143.99704102 -3.69331055 144.89422852 -2.90307617 145.81860352 C0.49363542 149.97356957 3.79020879 154.21488913 7.01733398 158.50268555 C8.18279876 160.02857718 9.41020553 161.50677713 10.64770508 162.97485352 C11.30770508 162.97485352 11.96770508 162.97485352 12.64770508 162.97485352 C18.67293267 149.19839428 24.20982017 135.63783239 27.64770508 120.97485352 C27.84750977 120.19368164 28.04731445 119.41250977 28.25317383 118.60766602 C31.99322824 93.64928314 24.19674278 68.12371643 9.45239258 47.97485352 C7.26155198 45.22676078 4.99969451 42.58592613 2.64770508 39.97485352 C1.95032227 39.1949707 1.25293945 38.41508789 0.53442383 37.61157227 C-12.48335912 23.83223712 -30.22721644 14.99778582 -48.35229492 9.97485352 C-49.10768555 9.7621582 -49.86307617 9.54946289 -50.64135742 9.33032227 C-59.3314856 7.25484492 -68.47655175 7.34988492 -77.35229492 6.97485352 C-76.69229492 0.70485352 -76.03229492 -5.56514648 -75.35229492 -12.02514648 C-52.31943794 -19.70276548 -20.82146326 -10.29613862 0 0 Z " fill="#FD3C3C" transform="translate(304.352294921875,69.025146484375)"/>
</svg>